<svg id="Layer_1" xmlns="http://www.w3.org/2000/svg" viewBox="0 0 100 100"><style>.st0{fill:#efefef}.st1{fill:#102545}.st2{fill:#328fe3}.st3{fill:#1e4076}.st4{fill:url(#XMLID_33_)}.st5{fill:url(#XMLID_34_)}.st6{fill:url(#XMLID_35_)}.st7{fill:url(#XMLID_36_)}.st8{fill:url(#XMLID_37_)}.st9{fill:url(#XMLID_38_)}.st10{fill:url(#XMLID_39_)}.st11{fill:url(#XMLID_40_)}.st12{fill:url(#XMLID_41_)}.st13{fill:url(#XMLID_42_)}.st14{fill:url(#XMLID_43_)}.st15{fill:url(#XMLID_44_)}</style><g id="XMLID_31_"><path id="XMLID_29_" class="st0" d="M83.4 47.4c-1.4 0-2.8.2-4.2.6-1.6-1-6.9.2-7.9 1.4-1.7-.9-3.6-1.4-5.6-1.6-3.9-2.8-9.9-4.5-16.6-4.5-7 0-13.2 1.9-17.1 4.9-1.1.3-2.2.7-3.2 1.2-1-1.1-6.3-2.4-8-1.4-1.3-.4-2.7-.6-4.2-.6-8.8 0-16 7.1-16 16 0 8.8 7.1 16 16 16 1.4 0 2.8-.2 4.2-.6 2.8 1.8 6.2 2.8 9.8 2.8 1.9 0 3.8-.3 5.6-.9 3.9 2.4 8.7 3.9 13.8 3.9 5.1 0 9.9-1.4 13.8-3.9 1.8.6 3.6.9 5.6.9 3.6 0 6.9-1 9.8-2.8 1.3.4 2.7.6 4.2.6 8.8 0 16-7.1 16-16 0-8.8-7.1-16-16-16z"/><path id="XMLID_28_" class="st1" d="M34.2 20l-2.1-3.2v5.5c.6-.8 1.3-1.6 2.1-2.3z"/><path id="XMLID_27_" class="st1" d="M68.1 36.3c0-3.5-2.1-5.5-4.6-5.5-.7 0-1.5.2-2.1.5 2.1 0 3.8 1.7 3.8 4.6v21.2c1.1-.3 2.2-.6 3.4-.8-.2 0-.4.1-.6.1V36.3z"/><path id="XMLID_26_" class="st1" d="M32.1 36.3v18.8c.8-.8 1.8-1.5 2.8-2.1V36c0-2.9 1.9-4.6 4-4.6-.6-.3-1.3-.5-2.1-.5-2.4-.1-4.7 1.9-4.7 5.4z"/><path id="XMLID_25_" class="st2" d="M21.2 54.4c3.5 0 6.7 1 9.2 2.6.5-.7 1-1.3 1.7-1.9V36.3c0-3.5 2.3-5.5 4.8-5.5s4.6 2 4.6 5.5v14.1c1.7-.4 3.6-.6 5.5-.6 4.5 0 8.6 1.1 11.8 3V36.3c0-3.5 2.3-5.5 4.8-5.5s4.6 2 4.6 5.5v20.1c1.5-.3 3-.4 4.6-.4 4.9 0 9.4 1.3 12.7 3.5V30.9c0-9.4-5.5-15.1-14.4-15.1-6.4 0-10.6 2.9-14.1 6.8-2.3-4.4-6.6-6.8-12.2-6.8-5.7 0-9.9 3.1-12.6 6.5v-5.6H14.8v38.8c2-.7 4.1-1.1 6.4-1.1z"/><g id="XMLID_32_"><path id="XMLID_24_" class="st3" d="M44.6 50c-.5 0-1.1.1-1.6.2.5-.1 1.1-.2 1.6-.2z"/><path id="XMLID_23_" class="st3" d="M79.8 57c-1.1-.3-2.2-.6-3.4-.7 1.1.1 2.3.4 3.4.7z"/><path id="XMLID_22_" class="st3" d="M53.5 50.7c-.2 0-.3-.1-.5-.1.2 0 .3.1.5.1z"/><path id="XMLID_21_" class="st3" d="M76.4 56.3c-.5-.1-1.1-.1-1.7-.2.6 0 1.1.1 1.7.2z"/><path id="XMLID_20_" class="st3" d="M49 50h-.5c.1-.1.3-.1.5 0z"/><path id="XMLID_19_" class="st3" d="M52.1 50.4c-.2 0-.4-.1-.5-.1.1 0 .3 0 .5.1z"/><path id="XMLID_18_" class="st3" d="M46.9 49.9c-.6 0-1.2 0-1.9.1.7-.1 1.3-.1 1.9-.1z"/><path id="XMLID_17_" class="st3" d="M74.5 56.1c-.6 0-1.2-.1-1.9-.1.7 0 1.3 0 1.9.1z"/><path id="XMLID_16_" class="st3" d="M72.7 56c-.6 0-1.2 0-1.8.1.6-.1 1.2-.1 1.8-.1z"/><path id="XMLID_15_" class="st3" d="M70.6 56.1c-.6 0-1.1.1-1.7.2.6-.1 1.1-.2 1.7-.2z"/><path id="XMLID_14_" class="st3" d="M50.6 50.1c-.2 0-.4-.1-.6-.1.2.1.4.1.6.1z"/><path id="XMLID_13_" class="st3" d="M54.9 51.1c-.1 0-.2-.1-.3-.1 0 0 .1.1.3.1z"/><radialGradient id="XMLID_33_" cx="14.521" cy="16.235" r="34.719" gradientUnits="userSpaceOnUse"><stop offset="0" stop-color="#4d8dcb"/><stop offset="1" stop-color="#1e62ac"/></radialGradient><path id="XMLID_12_" class="st4" d="M51.5 50.3c-.3-.1-.6-.1-1-.1.4 0 .7 0 1 .1z"/><radialGradient id="XMLID_34_" cx="14.565" cy="16.128" r="34.748" gradientUnits="userSpaceOnUse"><stop offset="0" stop-color="#4d8dcb"/><stop offset="1" stop-color="#1e62ac"/></radialGradient><path id="XMLID_11_" class="st5" d="M53 50.6c-.3-.1-.6-.1-.9-.2.3 0 .6.1.9.2z"/><radialGradient id="XMLID_35_" cx="14.55" cy="14.857" r="35.157" gradientUnits="userSpaceOnUse"><stop offset="0" stop-color="#4d8dcb"/><stop offset="1" stop-color="#1e62ac"/></radialGradient><path id="XMLID_10_" class="st6" d="M68.9 56.3h-.2.2z"/><radialGradient id="XMLID_36_" cx="14.417" cy="16.132" r="34.819" gradientUnits="userSpaceOnUse"><stop offset="0" stop-color="#4d8dcb"/><stop offset="1" stop-color="#1e62ac"/></radialGradient><path id="XMLID_9_" class="st7" d="M70.9 56.1h-.3.3z"/><radialGradient id="XMLID_37_" cx="14.549" cy="15.985" r="34.819" gradientUnits="userSpaceOnUse"><stop offset="0" stop-color="#4d8dcb"/><stop offset="1" stop-color="#1e62ac"/></radialGradient><path id="XMLID_8_" class="st8" d="M54.5 51c-.3-.1-.7-.2-1-.3.3.1.7.2 1 .3z"/><radialGradient id="XMLID_38_" cx="14.575" cy="16.195" r="34.707" gradientUnits="userSpaceOnUse"><stop offset="0" stop-color="#4d8dcb"/><stop offset="1" stop-color="#1e62ac"/></radialGradient><path id="XMLID_7_" class="st9" d="M50 50c-.3 0-.7-.1-1-.1.3.1.7.1 1 .1z"/><radialGradient id="XMLID_39_" cx="14.557" cy="16.052" r="34.792" gradientUnits="userSpaceOnUse"><stop offset="0" stop-color="#4d8dcb"/><stop offset="1" stop-color="#1e62ac"/></radialGradient><path id="XMLID_6_" class="st10" d="M30.4 57c.5-.7 1-1.3 1.7-1.9-.6.6-1.2 1.2-1.7 1.9z"/><radialGradient id="XMLID_40_" cx="14.549" cy="16.07" r="34.781" gradientUnits="userSpaceOnUse"><stop offset="0" stop-color="#4d8dcb"/><stop offset="1" stop-color="#1e62ac"/></radialGradient><path id="XMLID_5_" class="st11" d="M48.5 49.9h-1.6 1.6z"/><radialGradient id="XMLID_41_" cx="14.799" cy="15.281" r="34.894" gradientUnits="userSpaceOnUse"><stop offset="0" stop-color="#4d8dcb"/><stop offset="1" stop-color="#1e62ac"/></radialGradient><path id="XMLID_4_" class="st12" d="M74.5 56.1h.2-.2z"/><radialGradient id="XMLID_42_" cx="14.547" cy="16.06" r="34.787" gradientUnits="userSpaceOnUse"><stop offset="0" stop-color="#4d8dcb"/><stop offset="1" stop-color="#1e62ac"/></radialGradient><path id="XMLID_3_" class="st13" d="M32.1 16.8z"/><radialGradient id="XMLID_43_" cx="14.546" cy="16.378" r="34.609" gradientUnits="userSpaceOnUse"><stop offset="0" stop-color="#4d8dcb"/><stop offset="1" stop-color="#1e62ac"/></radialGradient><path id="XMLID_2_" class="st14" d="M45.1 49.9h-.5c.1.1.3 0 .5 0z"/><radialGradient id="XMLID_44_" cx="76.353" cy="56.265" r=".001" gradientUnits="userSpaceOnUse"><stop offset="0" stop-color="#4d8dcb"/><stop offset="1" stop-color="#1e62ac"/></radialGradient><path id="XMLID_1_" class="st15" d="M76.4 56.3z"/></g></g></svg>